<?xml version="1.0" encoding="utf-8"?>
<!-- Generator: Adobe Illustrator 23.0.1, SVG Export Plug-In . SVG Version: 6.00 Build 0)  -->
<svg version="1.1" id="Layer_1" xmlns="http://www.w3.org/2000/svg" xmlns:xlink="http://www.w3.org/1999/xlink" x="0px" y="0px"
	 viewBox="0 0 800 600" style="enable-background:new 0 0 800 600;" xml:space="preserve">
<g>
	<g>
		<path d="M249.9,59.1c18.4-3.6,38.1-7.2,56.1,0.4c15.9,6.7,28.4,24.3,20.8,41.7c0.8-0.1,1.6-0.2,2.4-0.3c-2.6-3.1-5.3-6.2-7.9-9.3
			c-1.1-1.3-3.2,0.4-2.4,1.8c2.6,4.4,9,14.2,15.1,13.6c3.1-0.3,5.8-3.7,7.8-5.7c3.9-3.7,7.5-7.8,10.9-12c1.2-1.5-0.9-3.6-2.1-2.1
			c-3.9,4.9-8.2,9.6-12.8,13.8c-3.8,3.5-7,1.9-10.3-1.3c-2.4-2.3-4.3-4.9-6-7.8c-0.8,0.6-1.6,1.2-2.4,1.8c2.6,3.1,5.3,6.2,7.9,9.3
			c0.6,0.7,2,0.6,2.4-0.3c7.2-16.8-2-35-17.2-43.5c-19.4-10.9-42.3-7-63.1-3C247.2,56.6,248,59.5,249.9,59.1L249.9,59.1z"/>
	</g>
</g>
<g>
	<g>
		<path d="M249.6,56.3c-15.4,3.8-28.8,9.8-42.6,17.6c-1.7,0.9-0.2,3.6,1.5,2.6c13.5-7.7,26.7-13.6,41.8-17.3
			C252.3,58.7,251.4,55.8,249.6,56.3L249.6,56.3z"/>
	</g>
</g>
<g>
	<g>
		<path d="M178.2,320.6c-20.5,9.7-37.1,27.1-45.2,48.4c-4.3,11.3-6.1,23.8-4.5,35.9c1.8,13.3,8.3,24.8,17.1,34.7
			c38,42.6,98.4,50.9,152.3,53.5c35.6,1.7,71.2,1.7,106.8,0.1c1.9-0.1,1.9-3.1,0-3c-29.3,1.3-58.7,1.6-88.1,0.7
			c-29-0.9-58.4-2.3-86.8-8.8c-46.5-10.7-110.1-44.4-97.1-101.7c5.7-25.1,23.9-46.1,47-57C181.5,322.4,179.9,319.8,178.2,320.6
			L178.2,320.6z"/>
	</g>
</g>
<g>
	<g>
		<path d="M392.2,473.6c4.7,4.5,9.6,8.9,14.1,13.7c0.7,0.8,2.8,2.4,2.6,3.5c-0.1,0.6-2.9,2.9-3.5,3.5c-2.6,2.5-5.2,5-7.9,7.5
			c-1.4,1.3,0.7,3.4,2.1,2.1c3.4-3.1,6.8-6.3,10-9.6c1.4-1.4,3.1-2.6,2.6-4.8c-0.6-2.8-5.5-5.9-7.4-7.7c-3.5-3.4-7-6.8-10.6-10.3
			C392.9,470.1,390.8,472.3,392.2,473.6L392.2,473.6z"/>
	</g>
</g>
<image style="overflow:visible;enable-background:new    ;" width="701" height="720" xlink:href="B55CD284.png"  transform="matrix(0.2803 0 0 0.2979 192.4459 120.8592)">
</image>
<image style="overflow:visible;enable-background:new    ;" width="701" height="720" xlink:href="B55CD285.png"  transform="matrix(0.3792 0 0 0.3819 -11.9362 -37.6383)">
</image>
<image style="overflow:visible;enable-background:new    ;" width="701" height="720" xlink:href="B55CD283.png"  transform="matrix(0.6796 0 0 0.6643 331.2523 214.3617)">
</image>
</svg>
