<?xml version="1.0" encoding="utf-8"?>
<!-- Generator: Adobe Illustrator 24.0.1, SVG Export Plug-In . SVG Version: 6.00 Build 0)  -->
<svg version="1.1" id="Layer_1" xmlns="http://www.w3.org/2000/svg" xmlns:xlink="http://www.w3.org/1999/xlink" x="0px" y="0px"
	 viewBox="0 0 84.3 61.7" style="enable-background:new 0 0 84.3 61.7;" xml:space="preserve">
<style type="text/css">
	.st0{fill:#00BFFF;}
	.st1{fill:#00FF7F;}
	.st2{fill:#00BFFF;stroke:#0099CC;stroke-width:0.5;stroke-miterlimit:10;}
	.st3{fill:none;stroke:#00C000;stroke-width:0.5;stroke-miterlimit:10;}
</style>
<g>
	<g>
		<rect x="0.85" y="1.14" class="st0" width="37.8" height="7.3"/>
		<rect x="0.85" y="1.14" class="st0" width="9.5" height="25.3"/>
		<rect x="0.85" y="33.64" class="st0" width="9.5" height="27.2"/>
		<rect x="29.45" y="1.14" class="st0" width="9.5" height="25.3"/>
		<rect x="29.45" y="33.64" class="st0" width="9.5" height="27.2"/>
	</g>
	<g>
		<rect x="45.25" y="1.14" class="st1" width="37.8" height="7.1"/>
		<rect x="45.25" y="1.14" class="st1" width="9.5" height="25.3"/>
		<rect x="73.65" y="33.64" class="st1" width="9.5" height="27.2"/>
		<rect x="45.25" y="53.64" class="st1" width="37.8" height="7.2"/>
		<rect x="73.65" y="1.14" class="st1" width="9.4" height="15.5"/>
		<rect x="45.25" y="46.04" class="st1" width="9.5" height="14.8"/>
	</g>
</g>
<polygon class="st2" points="0.85,26.44 10.35,26.44 10.35,8.44 29.45,8.44 29.45,26.44 38.95,26.44 38.95,1.14 0.85,1.14 "/>
<polygon class="st2" points="0.85,33.64 10.27,33.64 10.35,60.84 0.85,60.84 "/>
<polygon class="st2" points="29.49,60.84 29.49,33.64 38.91,33.64 38.95,60.84 "/>
<polygon class="st3" points="45.25,1.14 45.25,26.44 54.75,26.44 54.75,8.24 73.65,8.24 73.65,16.64 83.05,16.64 83.05,1.14 "/>
<polygon class="st3" points="45.25,60.84 45.25,46.04 54.75,46.04 54.75,53.64 73.65,53.64 73.65,33.64 83.15,33.64 83.15,60.84 "/>
</svg>
